<svg width="23" height="22" viewBox="0 0 23 22" fill="none" xmlns="http://www.w3.org/2000/svg">
<path d="M11.5 11C13.1706 11 14.525 9.64561 14.525 7.97495C14.525 6.30429 13.1706 4.94995 11.5 4.94995C9.82931 4.94995 8.47498 6.30429 8.47498 7.97495C8.47498 9.64561 9.82931 11 11.5 11Z" stroke="white" stroke-width="2"/>
<path d="M17.5188 19.0664C17.3584 16.1509 16.4657 14.0248 11.4998 14.0248C6.53411 14.0248 5.64143 16.1509 5.48096 19.0664" stroke="white" stroke-width="2" stroke-linecap="round"/>
<path d="M3.18754 5.50724C2.70985 5.19159 2.06192 5.32103 1.79262 5.82629C0.683242 7.90769 0.267915 10.3002 0.624475 12.6501C1.03309 15.3432 2.42634 17.7888 4.53452 19.5136C6.64269 21.2385 9.31583 22.1197 12.0364 21.9869C14.7571 21.8541 17.3316 20.7166 19.2617 18.7946C21.1919 16.8726 22.3402 14.3028 22.4846 11.5828C22.6289 8.86277 21.7589 6.18593 20.043 4.0705C18.327 1.95507 15.8873 0.551505 13.196 0.131534C10.8476 -0.234937 8.45335 0.170291 6.36729 1.27088C5.8609 1.53805 5.72873 2.18543 6.04236 2.66444C6.35599 3.14345 6.99645 3.27146 7.50857 3.01544C9.15991 2.18992 11.0354 1.89287 12.8763 2.18014C15.0603 2.52095 17.0402 3.65995 18.4327 5.37664C19.8252 7.09334 20.5312 9.26562 20.4141 11.4729C20.297 13.6803 19.365 15.7657 17.7987 17.3254C16.2324 18.8851 14.1431 19.8082 11.9353 19.916C9.72753 20.0238 7.55825 19.3086 5.84744 17.9089C4.13664 16.5092 3.006 14.5245 2.67441 12.3391C2.39491 10.497 2.69987 8.62276 3.53235 6.97492C3.79053 6.46388 3.66522 5.82289 3.18754 5.50724Z" fill="white"/>
</svg>
